<?xml version="1.0"?>
<svg xmlns="http://www.w3.org/2000/svg" xmlns:xlink="http://www.w3.org/1999/xlink" version="1.1" viewBox="0 0 224 224" width="24px" height="24px"><g fill="none" fill-rule="nonzero" stroke="none" stroke-width="1" stroke-linecap="butt" stroke-linejoin="miter" stroke-miterlimit="10" stroke-dasharray="" stroke-dashoffset="0" font-family="none" font-weight="none" font-size="none" text-anchor="none" style="mix-blend-mode: normal"><path d="M0,224v-224h224v224z" fill="none"/><g fill="#919197"><path d="M101.46354,18.66667c-7.1545,0 -13.09977,3.86789 -17.51823,8.85938c-4.41846,4.99148 -7.67825,11.23102 -10.20833,17.35417c-3.75606,9.09018 -5.46032,16.37161 -6.30729,20.39844l-20.76302,4.72135l-18.66667,114.33333l107.33333,21l60.66667,-13.45312l-18.66667,-126.54688l-14,-3.5l-14,-15.16667l-10.44532,2.36979c-0.42602,-2.26215 -0.97656,-4.53743 -1.80468,-6.76302c-1.35891,-3.65209 -3.40114,-7.21226 -6.61718,-9.91667c-3.21605,-2.70441 -7.60504,-4.35677 -12.63282,-4.35677c-0.24176,0 -0.45388,0.08228 -0.69271,0.09115c-0.9557,-1.77164 -2.1503,-3.43556 -3.68229,-4.88542c-2.95111,-2.79289 -7.17919,-4.53906 -11.99479,-4.53906zM101.46354,28c2.7864,0 4.25311,0.733 5.57812,1.98698c0.23774,0.225 0.43137,0.60077 0.65625,0.875c-2.71453,1.59132 -5.10653,3.71102 -7.10937,6.10677c-4.21189,5.03814 -7.17204,11.28914 -9.40625,17.42708c-0.73425,2.01717 -1.27843,3.95329 -1.85937,5.90625l-11.73958,2.67969c1.07746,-4.11043 2.61642,-9.30208 4.77604,-14.52865c2.29058,-5.54352 5.24067,-10.97065 8.56771,-14.72917c3.32704,-3.75852 6.67762,-5.72396 10.53646,-5.72396zM120.25782,37.69792c1.68416,0.33423 3.09469,0.88135 4.1927,1.80469c1.59646,1.34247 2.9084,3.39688 3.88282,6.01562c0.63289,1.70089 1.06031,3.62612 1.40365,5.59635l-8.42188,1.91406c0.00341,-4.14259 -0.0153,-9.68115 -1.05729,-15.33073zM111.16146,39.73958c0.77167,4.61733 0.83854,9.85536 0.83854,13.92708v1.47656l-12.14062,2.77083c0.0376,-0.10459 0.05309,-0.20534 0.09114,-0.3099c2.01246,-5.52872 4.69898,-10.94439 7.80209,-14.65625c1.11829,-1.33768 2.25258,-2.34495 3.40885,-3.20833zM105.91146,84c2.20267,0 4.25746,0.10412 6.16146,0.32812c1.92267,0.224 3.66421,0.56438 5.21354,0.98438c1.57733,0.41067 2.93621,0.91744 4.04688,1.4401l-6.74479,19.14062c-0.88667,-0.41067 -1.95009,-0.84758 -3.13542,-1.23958c-1.19467,-0.41067 -2.50017,-0.81288 -3.9375,-1.13021c-1.40933,-0.31733 -2.96129,-0.58873 -4.55729,-0.74739c-1.596,-0.15867 -3.25879,-0.20271 -4.99479,-0.10938c-1.596,0.09333 -3.03275,0.34562 -4.30209,0.76562c-1.25066,0.41067 -2.35812,1.00421 -3.24479,1.71354c-0.88667,0.71867 -1.90269,1.55385 -2.38802,2.53385c-0.504,0.98 -1.33073,1.89744 -1.33073,4.94011c0,3.556 2.35142,6.08082 5.46875,7.96615c7,4.23733 19.79688,11.23238 19.79688,28.98438c0,5.53467 -1.54453,10.28897 -3.70053,14.23697c-2.11867,3.892 -5.05794,6.94794 -8.58593,9.16927c-3.45333,2.16533 -7.43605,3.52377 -11.77605,4.06511c-4.21867,0.52267 -7.38281,0.29575 -12.04948,-0.65625c-0.03733,0 -0.09027,-0.01824 -0.1276,-0.01824c-0.03733,0 -0.07248,-0.01823 -0.09115,-0.01823c-0.03733,0 -0.09027,-0.01823 -0.1276,-0.01823c-0.03733,0 -0.09027,-0.01823 -0.1276,-0.01823c-2.184,-0.48533 -4.29217,-1.13094 -6.27083,-1.87761c-1.96,-0.73733 -3.79852,-1.55517 -5.45052,-2.47917c-1.652,-0.90533 -3.15058,-1.86375 -4.44792,-2.84375c-1.26933,-0.97067 -2.359,-1.97182 -3.20833,-3.00782l5.15885,-15.91406c0.868,0.68133 1.93142,1.46708 3.13542,2.26041c1.232,0.812 2.6091,1.61336 4.0651,2.38803c1.49333,0.77467 3.06979,1.49012 4.70312,2.07812c1.652,0.588 3.36948,1.05204 5.04948,1.27604c1.49333,0.20533 2.82552,0.16975 3.99219,-0.07292c1.16667,-0.24267 2.18648,-0.69606 3.00781,-1.33073c0.83067,-0.616 1.46606,-1.40977 1.91406,-2.31511c0.448,-0.924 0.71006,-1.93403 0.7474,-3.02604c0.056,-1.092 -0.06635,-2.12785 -0.34635,-3.11718c-0.29867,-0.99867 -0.76767,-1.97356 -1.45833,-2.93489c-0.69067,-0.96133 -1.60504,-1.93623 -2.73437,-2.93489c-1.12933,-0.99867 -2.48733,-2.01629 -4.08333,-3.09896c-1.97867,-1.372 -3.79517,-2.72709 -5.97917,-4.59375c-1.74533,-1.484 -3.18077,-3.374 -4.35677,-5.25c-1.16667,-1.85733 -2.10948,-3.84985 -2.71615,-6.03385c-0.60667,-2.16533 -0.8505,-4.51559 -0.72917,-7.07292c0.20533,-4.26533 1.09433,-8.18358 2.625,-11.73958c1.55867,-3.57467 3.75448,-6.78942 6.50781,-9.55209c2.80933,-2.81866 6.21498,-5.21646 10.15365,-7.03646c4.06,-1.876 9.29527,-3.0116 14.41927,-3.6276c2.38,-0.32667 4.67994,-0.45573 6.83594,-0.45573z"/></g></g></svg>
