<?xml version="1.0" encoding="UTF-8"?>
<svg xmlns="http://www.w3.org/2000/svg" xmlns:xlink="http://www.w3.org/1999/xlink" width="32pt" height="32pt" viewBox="0 0 32 32" version="1.1">
<g id="surface1653314">
<path style=" stroke:none;fill-rule:nonzero;fill:rgb(100%,100%,100%);fill-opacity:1;" d="M 16 4 C 9.382812 4 4 9.382812 4 16 C 4 22.617188 9.382812 28 16 28 C 22.617188 28 28 22.617188 28 16 C 28 9.382812 22.617188 4 16 4 Z M 16 6 C 21.535156 6 26 10.464844 26 16 C 26 21.535156 21.535156 26 16 26 C 10.464844 26 6 21.535156 6 16 C 6 10.464844 10.464844 6 16 6 Z M 12.707031 11.292969 L 11.292969 12.707031 L 14.585938 16 L 11.292969 19.292969 L 12.707031 20.707031 L 16 17.414062 L 19.292969 20.707031 L 20.707031 19.292969 L 17.414062 16 L 20.707031 12.707031 L 19.292969 11.292969 L 16 14.585938 Z M 12.707031 11.292969 "/>
</g>
</svg>
