<?xml version="1.0" encoding="UTF-8"?>
<svg xmlns="http://www.w3.org/2000/svg" xmlns:xlink="http://www.w3.org/1999/xlink" width="150pt" height="150pt" viewBox="0 0 150 150" version="1.1">
<g id="surface9761441">
<path style=" stroke:none;fill-rule:nonzero;fill:rgb(100%,100%,100%);fill-opacity:1;" d="M 75 6 C 36.925781 6 6 36.925781 6 75 C 6 113.074219 36.925781 144 75 144 C 113.074219 144 144 113.074219 144 75 C 144 36.925781 113.074219 6 75 6 Z M 75 12 C 109.828125 12 138 40.171875 138 75 C 138 109.828125 109.828125 138 75 138 C 40.171875 138 12 109.828125 12 75 C 12 40.171875 40.171875 12 75 12 Z M 54 39.75 L 54 110.25 L 58.5 107.625 L 109.5 77.625 L 113.90625 75 L 109.5 72.375 L 58.5 42.375 Z M 60 50.25 L 102 75 L 60 99.75 Z M 60 50.25 "/>
</g>
</svg>
