<?xml version="1.0" encoding="UTF-8"?>
<svg xmlns="http://www.w3.org/2000/svg" xmlns:xlink="http://www.w3.org/1999/xlink" width="30pt" height="30pt" viewBox="0 0 30 30" version="1.1">
<g id="surface1671983">
<path style=" stroke:none;fill-rule:nonzero;fill:rgb(100%,100%,100%);fill-opacity:1;" d="M 5 26 C 5.023438 26 7.4375 25.976562 9.886719 24.082031 C 13.0625 21.632812 14.816406 17.121094 14.984375 11 L 11 11 C 10.597656 11 10.230469 10.757812 10.074219 10.382812 C 9.921875 10.007812 10.007812 9.578125 10.292969 9.292969 L 17.292969 2.292969 C 17.683594 1.902344 18.316406 1.902344 18.707031 2.292969 L 25.707031 9.292969 C 25.992188 9.578125 26.078125 10.007812 25.925781 10.382812 C 25.769531 10.757812 25.402344 11 25 11 L 20.984375 11 C 20.445312 27.515625 6.605469 28 5 28 C 4.445312 28 4 27.550781 4 27 C 4 26.449219 4.445312 26 5 26 Z M 5 26 "/>
</g>
</svg>
