<svg xmlns="http://www.w3.org/2000/svg" viewBox="0 0 5465.75 1436.09"><defs><style>.cls-1{isolation:isolate;}.cls-2,.cls-3{fill:#fff;}.cls-3,.cls-4,.cls-6{fill-rule:evenodd;}.cls-4{fill:#0071ce;}.cls-5,.cls-6{fill:#001689;}.cls-7{fill:#8c9091;}</style></defs><g id="Layer_2" data-name="Layer 2"><g id="Layer_1-2" data-name="Layer 1"><g class="cls-1"><path class="cls-2" d="M604.92,997.36c3.31,0,1.07,6.59-2.26,6.59H442.46c-48.14,0-57.62-37.93-64.93-67.62l-52-300.07c71.38,0,157.33-33,184.05-111.28,29.24-85.76-31.05-94-70.87-94-20.75,0-43.17,2.48-52.62,5.74-3.62,8.25-6.73,17.32-9.82,26.39L217.11,929.74c-13.78,40.39.72,68.42,12.33,68.42,3.33,0,1.37,5.79-2,5.79H1.72c-3.33,0-1.36-5.79,1.94-5.79,11.63,0,45.28-28,59.06-68.42L237,418.64c13.79-40.4-.71-68.44-12.34-68.44-3.32,0-1.34-5.76,2-5.76,35.68,2.48,221.63,0,289.7,0,142.73,0,191.59,75.84,164,156.63-24.75,72.54-86.72,125.3-186.21,154.15l53.16,245.67C569.57,981.66,595.79,997.36,604.92,997.36Z"/><path class="cls-2" d="M888.05,926.44c72.22,0,169.62-54.42,183-66.77,4.71-4.11,8.3-2.47,6.62,0l-66.47,114.58c-21.62,7.41-72.43,39.56-187.8,39.56-153.55,0-237.11-103-182.27-263.79C690,606.59,825.92,497.77,982,497.77c163.51,0,196.22,140.15,139.9,271.22H791.52C756.62,876.17,803.39,926.44,888.05,926.44Zm65-353.65C895.8,572.79,851,614,822.41,688.2H995C1023.1,615.66,1006.19,572.79,953.07,572.79Z"/><path class="cls-2" d="M1405.78,810.19l167.75-214.31c43.75-55.22,31.7-83.25,20.08-83.25-3.31,0-1.34-5.79,2-5.79h170.16c3.32,0,1.34,5.79-2,5.79-11.63,0-52.73,25.54-97.3,83.25l-332.1,418.78c-56,71.72-98.63,123.63-156.11,160.73-58.58,37.92-129,61.83-214.65,42.87l52-108.8c14.3,16.48,35.24,33,86.22,22.24,59.26-10.71,147.23-110.46,160.11-136L1219.1,595.88c-4.4-57.71-28-83.25-39.66-83.25-3.31,0-1.36-5.79,2-5.79h238.22c3.33,0,1.35,5.79-2,5.79-11.63,0-42.76,28-36.71,83.25Z"/><path class="cls-2" d="M2110.3,998.16c3.31,0,1.33,5.79-2,5.79h-220.8c-3.32,0-1.35-5.79,2-5.79,11.63,0,45.26-28,59-68.42l79-231.65c17.15-50.28,6.64-99.75-47.3-99.75s-101.85,55.24-117,99.75l-79,231.65c-13.78,40.39.73,68.42,12.35,68.42,3.3,0,1.35,5.79-2,5.79H1573.78c-3.32,0-1.36-5.79,2-5.79,11.61,0,45.26-28,59-68.42l118.66-347.88c14.07-41.2-.44-69.23-12.06-69.23-3.32,0-1.35-5.79,2-5.79h181l-16.61,48.63c23.62-15.66,71.16-57.7,169.1-57.7,119.52,0,139.24,85.73,102.13,194.57l-81,237.4C2084.16,970.13,2098.66,998.16,2110.3,998.16Z"/><path class="cls-2" d="M2751,755c-50.6,148.38-209.47,258.84-353.07,258.84-144.45,0-227.93-110.46-177.32-258.84s208.91-257.2,353.36-257.2C2717.57,497.77,2801.67,606.59,2751,755Zm-368.53,0c-35.7,104.7-29.73,174.77,44.13,174.77S2553.47,859.67,2589.17,755c35.43-103.87,29.18-175.57-43-175.57S2417.92,651.1,2382.49,755Z"/><path class="cls-2" d="M2911.38,929.74c-13.78,40.39.73,68.42,12.34,68.42,3.31,0,1.35,5.79-2,5.79H2701c-3.32,0-1.36-5.79,2-5.79,11.6,0,45.24-28,59-68.42l174.33-511.1c13.75-40.4-.74-68.44-12.37-68.44-3.31,0-1.36-5.76,2-5.76H3111Z"/><path class="cls-2" d="M3503.48,928.92c-14.08,41.21.42,69.24,12.07,69.24,3.31,0,1.31,5.79-2,5.79H3334.29c.3-8.25,5.41-25.57,12.68-42.07-22.76,15.68-70,51.93-158.84,51.93-107,0-212.06-74.18-150.77-253.9,56.81-166.52,210.58-262.14,335.95-262.14,83.81,0,106.9,32.15,113.51,39.56l40.47-118.69c13.78-40.4-.75-68.44-12.35-68.44-3.33,0-1.36-5.76,1.1-5.76h186.8ZM3375.86,582.68c-68.88,0-132.25,56.88-171.63,172.29-36.28,106.36-24.16,165.7,52.2,165.7,78,0,126.86-80,136.45-108L3438.14,680C3458.69,612.38,3417.37,582.68,3375.86,582.68Z"/><path class="cls-2" d="M4110.82,518.37,4075.1,623.06c-1.38,4.13-4.46,3.31-7.22,1.67-22.24-24.75-73.85-46.17-109.59-46.17-29,0-76.93,4.12-90.68,44.5-15.17,42.05,42.79,56.89,76,69.28C4017,717.89,4081.85,751.67,4046.2,849c-39.61,108.83-162.52,164.86-282,164.86-83,0-155.93-22.24-180-32.15l25.83-117c1.41-6.59,7.22-4.12,8.89-1.64,23.62,30.52,96.72,66.77,156.49,66.77,54,0,90.32-21.44,104-51.94,17.69-47-40.93-57.72-103.57-80.78-53-19.78-108.19-52.76-78.66-139.32,34.59-101.39,138.35-159.93,267.84-159.93C4044.77,497.77,4082.62,508.5,4110.82,518.37Z"/></g><path class="cls-3" d="M5211,561.79c0,265.13-215.22,480-480.72,480s-480.71-214.9-480.71-480,215.21-480,480.71-480S5211,296.67,5211,561.79Z"/><path class="cls-4" d="M5204.39,555.84c0,265.13-215.28,480-480.87,480s-480.84-214.9-480.84-480,215.27-480,480.84-480S5204.39,290.72,5204.39,555.84Z"/><path class="cls-5" d="M4634.06,455.63c27-22.32-11.58-41.91-8.06-74.11-5.28-4.48-17.42-2.07-19.46-9.66,2.14-16.64-4.21-24.8-13-30.63-15.58,5.48-21.72,20.27-25.94,37C4551.7,382.83,4551,402.56,4532,404c9.21-28.29-9.77-42.54-11.35-69.26,6.31-21.75,41.63-31.12,58.32-19.33,6.68-12,27.89-16.9,27.58-30.61,5.07,2.46,13.43,1.61,16.18,6.44,11.69,16.74-13.67,25.85-14.56,37.06-.75,8.86,7.64,17.83,19.45,21,8.28-8.48,15.5-17.9,22.67-27.42-2.09-24.56-12.4-46.69-13-67.69-12-2-16.47-.14-25.89,3.21-2.28-3.09-.87-9.84-8.09-8,4,13.59,8.41,22.61,0,33.84-10.9-1.52-11.25-6.42-11.32-16.12-7.57-.52-10.85,3.2-17.84,3.2-6.42-3.91-.47-10.14-8.13-12.89,13.71-1.94,19.92-11.34,30.82-16.1-10.81-10.78,3.05-28.17-8.13-35.43-14.37.72-12.54,17.6-22.69,22.54-8.2-6.65-10.92-25.59-9.73-33.84,2.63-17.63,26.68-28.27,29.18-43.5-7.61-16.27-21.94-6.14-40.5-6.42-23.5-.38-41.86,9.14-50.2,24.14-1.24,6.56,5.18,5.58,3.26,12.89-8.77,26.86-34.64,44.86-55.13,67.69-9.58,10.66-20.08,19.4-27.56,29-5,6.35-5.67,15.3-11.34,20.93-6.87,6.87-16.64,9.75-22.69,14.53-20.58,16.38-40.22,38.91-48.59,67.69-2.27,7.94-1,17-3.23,25.78-3.7,14.3-10.62,37.45-12.94,49.94-3.56,18.82,2.67,48.54,0,74.14-1,9.18-5.32,16.14-4.9,24.16,1.92,35,28.38,56.91,40.53,78.91,3.82,7,4.43,13.69,8.06,19.36,3.4,5.3,9,8.82,13,14.56,7.69,11,7,26.58,19.43,35.43,8.48-11.5,12.77-20.55,9.72-32.24-3.26-12.5-21.46-14.54-22.68-25.81-1.69-15.84,20.13-20.11,8.08-37-13.64-3.42-14.81,6.75-25.9,4.83-33.68-5.86-12-85.29,12.94-87,8.39-.59,17.88,12.12,25.9,16.12,4.62,2.28,12,1.17,16.24,3.19,17.65,8.53,21,30.09,19.46,50h8.1c8.72-8.65,1.5-18.8,4.83-29,5.23-15.94,24.66-13.08,38.88-22.59,16.08-10.78,19.29-40.32,45.36-37.08,10.33-4.81,12.37-15.75,24.3-17.74,13.36-2.23,29.74,11.27,40.55-1.6-7.36-9.82-10.29-17-9.75-32.22,11.41-4.11,33.7-6,42.12,1.61-2.39,4.57-6.57,7.48-6.5,14.51,2.81,7.22,13.9,13.59,22.69,9.66C4651.31,470.34,4643,458.86,4634.06,455.63Zm-150.68-19.34c-.61-8-5.51-11.69-8.06-17.74,2.79-2.06,3.25-6.42,6.47-8.06,4,3,9.11,4.92,11.34,9.7C4488.07,427.31,4492.17,434.16,4483.38,436.29Zm11.39,24.16c-1.43-4.52-5.3-6.61-4.9-12.89,3.89-3.68,9.8-.28,13,1.62C4502.55,455.32,4500.53,459.78,4494.77,460.45Z"/><path class="cls-6" d="M4789.64,342.84c7.22,11.4,25.12,5.07,24.28-4.85C4812.86,326.11,4790.06,327.1,4789.64,342.84Z"/><path class="cls-6" d="M4478.57,682.83c3,4.52,8.3,6.8,14.56,8.06.35-1.8,1.78-2.53,3.23-3.23C4499.11,676.55,4479.51,671.34,4478.57,682.83Z"/><path class="cls-6" d="M4710.21,226.83c-7.36-.82-9.61-8.86-17.84-11.3-16.47-4.92-31,2.86-43.71,12.89-1.26,7.18,2.13,9.71,1.62,16.13-3.8,1-15.45-8.49-16.22,4.83,13.38,3.65,26.18-12.71,42.14-6.45.37,4.81-6,5.48-1.62,9.66,12.17,14.34,18.12,32,16.2,56.41-.71,9.26-7.31,17.6-8.09,25.78-1.26,12.71,5.82,47.72,22.67,46.74,12.7-.71,12.93-21.14,19.45-30.64,10.48-15.21,31.8-24.49,43.73-35.43,4.74-19-3.53-69.17-12.93-82.2C4743,215.77,4725.94,228.54,4710.21,226.83Z"/><path class="cls-5" d="M4723.52,75.8c-8.88,0-17.69.28-26.46.75-1.48.09-2.88.23-4.38.33-7.53.51-15.07,1.1-22.5,1.94-.87.07-1.67.21-2.51.31-8.18,1-16.31,2.11-24.33,3.44a1.92,1.92,0,0,1-.49.07q-12.94,2.25-25.57,5.06c-6.54,13.93-25.53,15.43-28.57,32.77,36.65,7.24,64.69-21.28,110.18-16.13,6.79.78,12.84,5.07,19.45,4.86,7.78-.29,14.91-6.5,22.64-6.45,20.06.12,44.13,14.58,50.25,35.44,13.8-3.19,23.11,4.29,37.27,8.06,8.27,2.2,19.07,2.2,24.3,4.83,11.27,5.79,16.81,24.72,34,19.31,1,8.21,9.77,14.63,14.6,24.19a188,188,0,0,1,11.34,29c-8.95,16-34.33,5.43-40.5,25.78-5.48,18.09,14.58,38.9,17.79,56.41,3.45,18.59,2.16,37.57,17.82,40.24,9.51,1.64,15.39-7.45,22.71-4.8,8.37,18.58,14.65,48.58-3.24,62.81-15.35-3.16-33.26-25.8-48.63-29-5.56,7.78,4.45,13.83,3.24,22.59-13.5,3.49-12.85,26,0,24.14,14.08-2-.36-17.25,6.49-22.54,11.6,3,10,19,19.43,24.18,10.64,4,11.22-10.24,16.21-6.47,8.35,11.39-6.32,12.57-3.23,24.19,3.47,13.15,22.62,13.1,21.05,27.38-1.64,15.14-22.83,10.61-29.14,24.18,2.72,26.3,9.28,48.75,37.22,50,.87,16.13-12.3,24-14.53,38.67-1,6.66,3.35,14.4,1.62,22.55-2.25,10.41-13.31,16.22-17.86,25.78-5.81,12.31-14.51,34.67-14.58,48.33-.14,20.34,14.77,38,6.49,62.86,19.29,17.6,40.25,48.52,72.94,43.52,6.38-1,13.08-8.25,22.67-12.91,5.6-2.77,13.31-3.84,17.81-6.45,15.07-8.74,22.31-26.69,37.26-30.63,9.85-2.58,21.94-1.31,32.39,0,5.72,6.14.54,16.71,0,25.78,7.5,15.31,20.89,18.14,16.22,45.14-2.18,12.38-14.06,24.21-17.83,38.68-1.9,7.1-1.2,16.17-3.21,22.54-.14.42-.33.85-.47,1.22q6.54-7.66,12.86-15.65c.17-.22.36-.45.52-.69,4.13-5.2,8.09-10.52,11.95-15.91a8.88,8.88,0,0,0,.61-.84c3.87-5.44,7.71-10.92,11.35-16.53a2.5,2.5,0,0,0,.21-.35,475.76,475.76,0,0,0,45.86-89.44c.52-1.31,1.08-2.64,1.6-4,1.73-4.54,3.3-9.18,4.9-13.82.84-2.51,1.69-5,2.53-7.5,1.33-4.18,2.55-8.35,3.82-12.57.87-3.12,1.8-6.18,2.67-9.32q1.55-5.85,2.95-11.77c.87-3.52,1.72-7.05,2.46-10.59.83-3.71,1.6-7.44,2.33-11.16.74-3.91,1.45-7.83,2.08-11.77.63-3.51,1.22-7,1.74-10.54.61-4.34,1.12-8.67,1.64-13,.39-3.24.82-6.47,1.12-9.75.49-5,.85-10.08,1.15-15.15.14-2.67.42-5.29.54-8,.37-7.8.61-15.63.61-23.51C5204.39,290.72,4989.11,75.8,4723.52,75.8Zm352.83,260.58c20.32,6.49,2.86,23-3.24,35.48-3.6,7.41.94,15.89-8.06,17.67-12.19-3.47-13.64-17.55-19.45-27.37C5048.62,346.52,5061,331.5,5076.35,336.38Zm-137.7,20.95c21-21.59-7.92-44-19.45-58-.19-2.86,2-3.38,1.64-6.42,11.46,6.37,22,3.82,32.39,11.25a115.7,115.7,0,0,0,14.63,32.25C4965.75,350.88,4952.74,364.69,4938.65,357.33Zm170.11,106.36c-8.2,7.73-20.88,8.15-24.32,17.72,10.5,27.61-21.78,22.26-37.2,29-14.23-1.52-11.56-18-22.71-19.36-7-.84-22.55,12.54-30.8,19.36-13.24,11-21.37,29.21-34,30.61-7.5-10.78,7.79-15.14,9.71-25.75,1.26-6.92-3.45-13.9-3.21-21,.23-7.46,3-20.11,4.85-25.78,3.77-11.77,13.47-19.88,24.3-25.78,7.81,4.82,26,7.1,37.24,3.23-.75-15.94-26.69-6.75-25.89-24.19,26.92-8.2,39.53,19.39,59.92,17.74,3.83-7.75-10.57-17.76-4.85-27.39,9.35-4.08,13.41,7.1,21.05,9.65,13.78-.82,14-15,25.92-17.74C5129.62,417.89,5125.5,447.91,5108.76,463.69Z"/><path class="cls-6" d="M4505.29,983.7a477,477,0,0,0,98.77,37.24l7.1-4.45c15.26-5.91,24.59-7.27,37.5-13,10.38-4.62,16.1-13.92,27.54-17.72,10.13-3.37,23-.28,35.65-4.85,17.06-6.16,16.57-22.43,24.28-37,7.88-14.86,34.34-23.42,32.41-38.68-2.48-19.75-49-20.1-72.91-25.78-7.45-1.78-15.28-8.08-24.3-11.27-9.82-3.49-21.71-4.81-25.88-8.06-8.74-6.82-7.57-19.53-14.62-29-11.63-15.56-22.2-10.31-43.76-20.91-18.43-9.12-27.12-35.67-43.69-43.52-5.95-2.79-17.51-2.13-24.33-4.83-29.83-11.77-53.37-46.52-84.23-17.74-5.86,11.81-.47,16.78-3.26,25.8-6.14,19.76-28.9,19-21.05,53.16,2.25,9.89,13.32,24,21.05,37.08,7.31,12.35,15.4,26.32,22.71,33.82,14.56,15,32.09,18.89,40.5,33.84a92.84,92.84,0,0,1,11.32,53.18Z"/><path class="cls-5" d="M5150.64,258.24c-93.77-133.55-248.57-221.3-423.7-222.45,18.63,39.19,29.72,88.12,29.67,144.45.29,184.19-118.33,445.45-454.33,681.42a524.25,524.25,0,0,0,179.93,155C4920.25,778.24,5112.77,490.17,5150.64,258.24Z"/><path class="cls-7" d="M4866.47,0H4738.24C4859.13,198.89,4765,657.66,4117,1006.71h98.55C4881.4,662,4983.53,211.22,4866.47,0Z"/><path class="cls-7" d="M4985,0h-91.62c120.87,198.89,18.72,657.66-615.8,1006.71h61.88C4991.83,662,5102.06,211.22,4985,0Z"/><path class="cls-7" d="M5090.25,0h-79.43c120.86,198.89,18.72,657.66-615.8,1006.71h49.69C5097.07,662,5207.25,211.22,5090.25,0Z"/><path class="cls-2" d="M1690.57,1425.38c-15,4.46-45.34,10.71-89.27,10.71-101.75,0-152.82-62-121.07-153.44,32.38-93.22,127.3-158.79,223.49-158.79,56.43,0,73.84,5.8,85.09,8l-18,54.42a1.7,1.7,0,0,1-3.23,0c-7.23-9.82-31.88-22.75-68.88-22.75-60.12,0-115.07,42.37-141.1,117.31-22.92,66-3.12,115.52,66.25,115.52,42.09,0,80.82-21,99.18-31.22,3.39-1.79,4.78-1.79,3.54.44Z"/><path class="cls-2" d="M1821,1436.09c-68.45,0-108.14-50.85-84.43-119.1s98.39-118.19,166.84-118.19c68,0,108,50,84.28,118.19S1889,1436.09,1821,1436.09Zm69.4-199.83c-34.23,0-60.49,33-77.06,80.73-16.73,48.18-13.55,80.29,21.13,80.29,35.15,0,60.18-32.11,76.91-80.29C1927.93,1269.27,1924.59,1236.26,1890.37,1236.26Z"/><path class="cls-2" d="M2111.56,1431.63c-1.39,0-.46-2.68.93-2.68,5.55,0,21.6-12.94,28.11-31.67l36.87-106.15c8.06-23.2,3-46-22.43-46-25.9,0-48.14,25.43-55.27,46l-36.87,106.15c-6.5,18.73.11,31.67,5.65,31.67,1.85,0,.93,2.68-.92,2.68H1963.11c-1.39,0-.46-2.68.92-2.68,5.55,0,21.61-12.94,28.12-31.67l55.45-159.68c6.66-19.18-.4-32.11-5.95-32.11-1.39,0-.46-2.68.93-2.68h85.55l-7.9,22.75c11.42-7.58,33.81-26.76,80.06-26.76,56.88,0,66.22,39.69,48.87,89.65l-37.8,108.83c-6.51,18.73.56,31.67,5.65,31.67,1.85,0,.92,2.68-.93,2.68Z"/><path class="cls-2" d="M2323.21,1436.09c-39.31,0-73.67-10.26-85.08-14.72l11.81-54c.47-2.68,3.4-1.79,4.32-.45,10.92,13.83,45.89,30.33,74.1,30.33,25.9,0,43.49-9.37,49.37-23.64,8.82-21.41-19.53-26.32-49.58-37-25-9.37-51.14-24.53-37.35-64.23,16.27-46.83,65.33-73.59,126.84-73.59,37.47,0,55.65,4.9,68.9,9.36l-16.73,48.17c-.78,2.23-2,1.79-3.55.9-10.31-11.6-35.11-21.41-51.76-21.41-13.88,0-36.39,2.23-42.74,20.51-7.28,19.63,20,26.32,36,32.12,34.67,12,65.47,27.21,48.59,71.81C2438.1,1410.22,2380.09,1436.09,2323.21,1436.09Z"/><path class="cls-2" d="M2607.33,1431.63l6.81-19.63c-12.65,7.14-32.88,24.09-80.51,24.09-43.94,0-68.25-24.54-46.25-87.87l38.41-110.62c6.67-19.18-.4-32.11-5.95-32.11-1.39,0-.46-2.68.93-2.68h88.33l-50.5,145.41c-9.61,27.65-.38,42.37,23.2,42.37,25.44,0,45.51-17.84,54-42.37l38.42-110.62c6.66-19.18.05-32.11-5.5-32.11-1.85,0-.92-2.68.93-2.68h87.87L2690,1397.28c-6.5,18.73.57,31.67,6.12,31.67,1.38,0,.45,2.68-.93,2.68Z"/><path class="cls-2" d="M2994.88,1431.63c-1.39,0-.46-2.68.93-2.68,5.54,0,21.6-12.94,28.11-31.67l38.57-111.06c10.38-29.89-2.4-41-21.36-41s-39.64,12.94-49.4,41l-38.57,111.06c-6.51,18.73.1,31.67,5.65,31.67,1.85,0,.92,2.68-.93,2.68H2853.36c-1.39,0-.46-2.68.93-2.68,5.55,0,21.6-12.94,28.11-31.67L2921,1286.22c10.53-30.33-2.4-41-20.9-41s-40.25,13.38-49.86,41l-38.57,111.06c-6.51,18.73.1,31.67,5.65,31.67,1.85,0,.92,2.68-.93,2.68H2711.84c-1.39,0-.46-2.68.93-2.68,5.55,0,21.6-12.94,28.11-31.67l55.46-159.68c6.66-19.18-.41-32.11-6-32.11-1.39,0-.46-2.68.93-2.68h86.48l-7.9,22.75c10-7.58,35.66-26.76,73.12-26.76,35.61,0,48.07,14.71,56.06,30.33,8.8-6.69,38.75-30.33,85.46-30.33,52.72,0,68.24,31.22,47.17,91.88l-37,106.6c-6.5,18.73.1,31.67,5.66,31.67,1.84,0,.92,2.68-.93,2.68Z"/><path class="cls-2" d="M3222.44,1323.69c-16.12,49.06,5.89,72.25,46.12,72.25,34.23,0,79.9-25,86.54-30.77,2-1.79,3.55-.9,3.24,0l-31.23,52.63c-10.49,3.57-34.57,18.29-89.14,18.29-72.61,0-112.61-47.28-86.89-121.33,22.92-66,87-116,161-116,77.7,0,93.16,64.67,66.7,124.89Zm76.31-90.55c-27.29,0-48.29,19.18-61.91,53.08h81.86C3331.55,1253.21,3323.72,1233.14,3298.75,1233.14Z"/><path class="cls-2" d="M3568.78,1263.92c-4.47-4.46-14.33-5.36-21.27-5.36-28.21,0-50.44,20.08-61.9,53.08l-29.75,85.64c-6.5,18.73.1,31.67,5.65,31.67,1.85,0,.92,2.68-.93,2.68H3356.06c-1.38,0-.46-2.68.93-2.68,5.55,0,21.61-12.94,28.11-31.67l55.46-159.68c6.66-19.18-.41-32.11-6-32.11-1.38,0-.45-2.68.93-2.68h84.17l-12.39,35.68c21.94-25.87,55.57-42.82,87-37.46l-21.69,62.44A2.19,2.19,0,0,1,3568.78,1263.92Z"/><path class="cls-2" d="M3797.78,1302.28c-6.94,0-25.28-.45-38.69-1.79l-33.61,96.79c-6.51,18.73.56,31.67,5.65,31.67,1.85,0,.92,2.68-.93,2.68H3623.36c-1.38,0-.45-2.68.93-2.68,5.55,0,21.61-12.94,28.12-31.67L3734,1162.22c6.36-18.29-.71-31.22-6.26-31.22-1.39,0-.46-2.68.93-2.68,38.38,1.34,89.72,0,130.88,0,84.17,0,93.65,47.28,81.25,83C3927.52,1249.64,3887,1302.28,3797.78,1302.28ZM3831,1168c-8.79,0-21.58.89-26.67,2.23l-31.91,91.88c5.08,1.34,18,1.34,24,1.34,26.36,0,57.22-14.27,69.15-48.62C3880.63,1171.59,3848.11,1168,3831,1168Z"/><path class="cls-2" d="M4085.35,1263.92c-4.46-4.46-14.33-5.36-21.27-5.36-28.21,0-50.44,20.08-61.9,53.08l-29.75,85.64c-6.5,18.73.11,31.67,5.65,31.67,1.85,0,.93,2.68-.92,2.68H3872.64c-1.39,0-.46-2.68.93-2.68,5.54,0,21.6-12.94,28.1-31.67l55.46-159.68c6.66-19.18-.4-32.11-6-32.11-1.39,0-.46-2.68.93-2.68h84.17l-12.4,35.68c21.94-25.87,55.57-42.82,87-37.46l-21.68,62.44A2.2,2.2,0,0,1,4085.35,1263.92Z"/><path class="cls-2" d="M4155,1436.09c-68.44,0-108.13-50.85-84.43-119.1s98.4-118.19,166.85-118.19c68,0,108,50,84.28,118.19S4223,1436.09,4155,1436.09Zm69.4-199.83c-34.22,0-60.48,33-77.06,80.73-16.73,48.18-13.55,80.29,21.14,80.29,35.15,0,60.18-32.11,76.91-80.29C4262,1269.27,4258.67,1236.26,4224.44,1236.26Z"/><path class="cls-2" d="M4478.93,1431.63c-.14-3.57,2.18-11.6,5.74-19.18-10.8,7.13-33.18,23.64-75.27,23.64-50.41,0-100.61-33.9-71.79-116.87,26.48-76.27,99.17-120.42,158.83-120.42,39.77,0,50.38,14.71,53.77,18.28l19.05-54.86c6.36-18.29-.71-31.22-6.26-31.22-1.39,0-.46-2.68.46-2.68h88.8l-93.41,269c-6.51,18.73.1,31.67,5.65,31.67,1.85,0,.92,2.68-.93,2.68Zm48.51-149c10.84-31.22-10.41-44.6-29.83-44.6-32.84,0-62.64,25.87-81.07,78.94-17,49.07-10.77,76.28,25.31,76.28,37,0,59.87-36.58,64.36-49.51Z"/><path class="cls-2" d="M4743,1431.63l6.82-19.63c-12.65,7.14-32.88,24.09-80.51,24.09-43.94,0-68.25-24.54-46.26-87.87l38.42-110.62c6.66-19.18-.41-32.11-6-32.11-1.38,0-.45-2.68.93-2.68h88.34l-50.51,145.41c-9.6,27.65-.37,42.37,23.21,42.37,25.44,0,45.51-17.84,54-42.37l38.42-110.62c6.66-19.18,0-32.11-5.5-32.11-1.85,0-.92-2.68.93-2.68h87.87l-67.54,194.47c-6.51,18.73.56,31.67,6.11,31.67,1.39,0,.46,2.68-.93,2.68Z"/><path class="cls-2" d="M5042.55,1420c-6.33,3.57-36.57,16.06-76.34,16.06-70.76,0-107.53-45.95-82-119.54,22-63.34,87.6-117.75,163.45-117.75,21.27,0,49.48,1.33,62.57,10.26L5092,1261.69c-.46,1.33-2.16.89-2.77,0-2.46-3.57-12.14-25-41.74-25-37.46,0-70.49,23.19-90.32,80.28-18.43,53.08,6,77.17,42.57,77.17,33.3,0,66.64-25.43,73.59-30.78,2.62-2.23,4.16-1.34,3.24,0Z"/><path class="cls-2" d="M5188.67,1429.39c-8.79,2.68-20.83,6.7-45.8,6.7-31.91,0-60.24-18.29-45.22-61.56l46.63-134.25H5123l5.88-17c33.48-13.83,90.59-58.43,104.34-71.37h13.87l-17.66,50.85h52.72l-19.49,37.47H5216l-41.68,120c-11,31.67,7.33,41.48,41.11,29.44,3.09-.89,4.17,0,3.24,1.34Z"/><path class="cls-2" d="M5302.42,1436.09c-39.31,0-73.67-10.26-85.07-14.72l11.81-54c.47-2.68,3.39-1.79,4.32-.45,10.92,13.83,45.89,30.33,74.1,30.33,25.9,0,43.49-9.37,49.37-23.64,8.82-21.41-19.54-26.32-49.58-37-25-9.37-51.14-24.53-37.35-64.23,16.26-46.83,65.33-73.59,126.84-73.59,37.46,0,55.64,4.9,68.89,9.36L5449,1256.33c-.77,2.23-2,1.79-3.54.9-10.31-11.6-35.12-21.41-51.76-21.41-13.88,0-36.39,2.23-42.74,20.51-7.28,19.63,20,26.32,36,32.12,34.66,12,65.47,27.21,48.59,71.81C5417.32,1410.22,5359.31,1436.09,5302.42,1436.09Z"/></g></g></svg>