<svg xmlns="http://www.w3.org/2000/svg" viewBox="0 0 1756.28 364.06"><defs><style>.cls-1{isolation:isolate;}.cls-2,.cls-3,.cls-6{fill:#222f6e;}.cls-2,.cls-4,.cls-6,.cls-7,.cls-8{stroke:#fff;stroke-miterlimit:10;}.cls-2{stroke-width:2px;}.cls-4{fill:none;}.cls-4,.cls-6,.cls-7,.cls-8{stroke-width:3px;}.cls-5{mix-blend-mode:multiply;}.cls-7{fill:#134fa6;}.cls-8{fill:#007dc3;}.cls-9{opacity:0.21;}</style></defs><g class="cls-1"><g id="Layer_2" data-name="Layer 2"><g id="Layer_1-2" data-name="Layer 1"><path class="cls-2" d="M661.12,129.05h27.14l-36,169.41H625.08Z"/><path class="cls-2" d="M706.75,129.05h26.91l60.84,129.4,27.84-129.4h26.91l-36,169.41H787L725.7,168.6,697.86,298.46H670.71Z"/><path class="cls-2" d="M934.66,129.05h32.06L983.1,269.92l77-140.87h33.7l-5.62,169.41H1061l4.44-132.9-73.24,132.9H963.91l-16.38-132.9-52.65,132.9H868Z"/><path class="cls-2" d="M1105.48,235.05c0-56.63,34.86-107.87,94.06-107.87,38.15,0,69.73,19.66,69.73,65.52,0,55.69-35.09,108.34-94.06,108.34C1136.83,301,1105.48,281.15,1105.48,235.05Zm136.89-39.78c0-28.31-16.62-43.52-44.23-43.52-45.86,0-66.22,45.63-66.22,80.49,0,28.78,16.61,44.23,44.69,44.23C1221.54,276.47,1242.37,229.9,1242.37,195.27Z"/><path class="cls-2" d="M1314.2,153.62h-45.86l5.15-24.57h118.63L1387,153.62h-45.62l-30.89,144.84h-27.14Z"/><path class="cls-2" d="M1399.61,129.05h27.14l-36,169.41h-27.14Z"/><path class="cls-2" d="M1419.73,235.05c0-56.63,34.87-107.87,94.07-107.87,38.14,0,69.73,19.66,69.73,65.52,0,55.69-35.1,108.34-94.07,108.34C1451.09,301,1419.73,281.15,1419.73,235.05Zm136.89-39.78c0-28.31-16.61-43.52-44.22-43.52-45.87,0-66.23,45.63-66.23,80.49,0,28.78,16.62,44.23,44.7,44.23C1535.79,276.47,1556.62,229.9,1556.62,195.27Z"/><path class="cls-2" d="M1612.55,129.05h26.91l60.83,129.4,27.85-129.4h26.91l-36,169.41h-26.2L1631.5,168.6l-27.84,129.86h-27.15Z"/><path class="cls-3" d="M747.43,70.59l6.22-1.91c2.74,6.64,10,10.62,18.26,10.62,10.21,0,17.43-4.48,17.43-11.62,0-15-33.78-6.88-33.78-27.05,0-8.46,7.3-17.18,22.33-17.18,10.62,0,19.83,5.15,23.15,13.61l-6.06,2c-2.57-5.89-9-9.71-17.09-9.71C766.27,29.34,762,35.4,762,40.21c0,15.28,33.87,6.89,33.87,27.14,0,8.72-7.47,17.85-24.07,17.85C760.21,85.2,750.91,79.55,747.43,70.59Z"/><path class="cls-3" d="M804,60.13C807.27,43.62,819.22,36,830.67,36c8.3,0,15,4.23,16.27,12.62l2.57-11.7h6.56L845.94,84.28h-6.55l2.49-10.87c-4.65,8.3-12.2,12-19.92,12C809.92,85.45,800.71,77.15,804,60.13Zm40.67,0c2.32-11.2-3.16-18.34-13.45-18.34-10.54,0-18.67,7.47-20.91,19.26-2.16,11.53,3,18.59,13.44,18.59S842.21,72.08,844.7,60.13Z"/><path class="cls-3" d="M870.76,21.46h6.56L864,84.37H857.4Z"/><path class="cls-3" d="M878.32,60.13C880.89,45.69,891.76,36,905.7,36c14.86,0,22.58,10,18.76,26H884.54C882.8,72.58,888,79.55,898.65,79.55c7.8,0,13.11-2.9,17.26-8.63l5.81,1.83C916.16,81,908.53,85.28,898.4,85.28,883.46,85.28,875.58,75.4,878.32,60.13Zm40.83-3.65c1.08-9-3.57-15-13.36-15s-17.35,5.81-20,15Z"/><path class="cls-3" d="M927.78,73l6-1.75c2.32,5.07,9,8.22,16,8.22,8.21,0,14-3.49,14.1-8.71.17-12-30-4.15-29-22.08.5-7.39,8.3-12.61,18.84-12.61,9.13,0,17.51,4.73,20.17,10.62L968.2,48.6c-2.32-3.82-7.88-6.89-14.44-6.89-7.3,0-12.37,3.07-12.45,7.63-.25,12.2,30.13,3.66,29,22-.5,7.88-9.3,13.77-20.42,13.77C939.57,85.11,930.44,80.22,927.78,73Z"/><path class="cls-3" d="M1011.86,24.28h38.68l-1.33,6.22h-32l-4.31,20.34h30.46l-1.25,6h-30.46l-4.56,21.33h31.95l-1.33,6.23H999.08Z"/><path class="cls-3" d="M1052.12,36.9H1059l9,39.67,26-39.67h7.55L1070,84.45h-6.31Z"/><path class="cls-3" d="M1100,60.13C1103.08,43.2,1115.77,36,1127.48,36c12.11,0,22.65,7.89,19.5,25.15-3.15,17.1-15.85,24.32-27.47,24.32C1107.31,85.45,1096.85,77.56,1100,60.13Zm40.66,0c2-11.2-3.48-18.34-13.69-18.34-10.54,0-18.59,7.47-20.67,19.26-1.91,11.53,3.32,18.59,13.7,18.59S1138.6,72.08,1140.67,60.13Z"/><path class="cls-3" d="M1164.58,21.46h6.55l-13.36,62.91h-6.55Z"/><path class="cls-3" d="M1172.21,62l5.4-25.14h6.47l-5.39,25.39c-2.49,11.54.83,17,11,17,10.46,0,16.35-6.88,18.93-19.08l5-23.32H1220l-10.13,47.47h-6.47l2.32-10.29a20.06,20.06,0,0,1-18.09,11.12C1173.88,85.2,1169,77.06,1172.21,62Z"/><path class="cls-3" d="M1228,65.86l5.06-23.65h-7.13l1.16-5.31h7.05L1236,28l6.89-1.41-2.16,10.3h14.86l-1.17,5.31h-14.85L1234.55,66c-2.08,9.71.66,13.52,7.55,13.52a18.47,18.47,0,0,0,3.9-.33l.58,5.23a29.72,29.72,0,0,1-5.48.58C1230,85,1225.25,78.89,1228,65.86Z"/><path class="cls-3" d="M1262.93,36.9h6.56l-10.13,47.47h-6.55Zm1.33-10.79a4.32,4.32,0,0,1,4.48-3.49c2.49,0,4,1.66,3.49,4.15a4.23,4.23,0,0,1-4.4,3.48C1265.26,30.25,1263.68,28.6,1264.26,26.11Z"/><path class="cls-3" d="M1274.39,60.13C1277.46,43.2,1290.15,36,1301.86,36c12.11,0,22.65,7.89,19.5,25.15-3.15,17.1-15.85,24.32-27.47,24.32C1281.69,85.45,1271.23,77.56,1274.39,60.13Zm40.66,0c2-11.2-3.48-18.34-13.69-18.34-10.54,0-18.59,7.47-20.67,19.26-1.91,11.53,3.32,18.59,13.7,18.59S1313,72.08,1315.05,60.13Z"/><path class="cls-3" d="M1335.72,36.9h6.47L1340,47.19a20.07,20.07,0,0,1,18.1-11.12c13.69,0,18.67,8.13,15.43,23.15l-5.39,25.15h-6.48l5.4-25.32c2.41-11.53-.91-17.09-11-17.09-10.54,0-16.35,6.89-19,19.09l-5,23.32h-6.47Z"/><path class="cls-3" d="M1426.77,30.5h-17.68l1.33-6.22h41.83L1451,30.5h-17.59L1422,84.37h-6.73Z"/><path class="cls-3" d="M1443.21,60.13c2.57-14.44,13.44-24.15,27.38-24.15,14.86,0,22.58,10,18.76,26h-39.92c-1.74,10.62,3.49,17.59,14.11,17.59,7.8,0,13.11-2.9,17.26-8.63l5.81,1.83c-5.56,8.21-13.19,12.53-23.32,12.53C1448.35,85.28,1440.47,75.4,1443.21,60.13ZM1484,56.48c1.08-9-3.57-15-13.36-15s-17.35,5.81-20,15Z"/><path class="cls-3" d="M1497.24,60.13c3.23-16.51,15.18-24.15,26.64-24.15,8.3,0,15,4.23,16.26,12.62l2.58-11.7h6.55l-10.12,47.38h-6.56l2.49-10.87c-4.65,8.3-12.2,12-19.92,12C1503.13,85.45,1493.92,77.15,1497.24,60.13Zm40.66,0c2.33-11.2-3.15-18.34-13.44-18.34-10.54,0-18.67,7.47-20.92,19.26-2.15,11.53,3,18.59,13.45,18.59S1535.41,72.08,1537.9,60.13Z"/><path class="cls-3" d="M1560.73,36.9h6.47l-2.32,10.62c3.15-6.89,9.46-11.45,16.93-11.45,9.3,0,12.86,4.64,13.28,12.69,3.9-8.13,9.54-12.78,18.84-12.78,13,0,16.35,8.8,12.78,25.31l-4.9,23.08h-6.55l5-23.32c2.73-12.95.91-19.18-8.47-19.18-9.79,0-14.94,6.31-17.76,19.84l-4.9,22.66h-6.47l4.9-23.16c2.82-13,1.66-19.25-7.8-19.25-9.8,0-15,7-18,20.66l-4.65,21.75h-6.47Z"/><path class="cls-4" d="M507.1,94.94H431.59L450,8.31H698.76L680.37,94.94h-75L549.2,358.72H451Z"/><path class="cls-4" d="M276.31,8.31H511.53l-17.9,86.63H356.17l-11.61,51.79H473.3l-15,71.63H329.55l-11.61,54.21H455.39L437,358.72H201.78Z"/><g class="cls-5"><path class="cls-6" d="M507.1,94.94H431.59L450,8.31H698.76L680.37,94.94h-75L549.2,358.72H451Z"/></g><path class="cls-4" d="M1.68,259,90.25,246.4C95.09,272.54,118.32,290,146.88,290c30,0,49.37-12.1,49.37-33.4,0-51.3-158.75-35.33-158.75-141.32C37.5,46,93.64,1.5,180.28,1.5c72.11,0,132.61,42.11,138.42,97.28l-89.54,14c-6.78-22.75-26.62-37.27-53.24-37.27S132.36,87.17,132.36,107C132.36,165.09,294,141.37,294,249.3c0,68.73-59.53,113.26-151.49,113.26C66.05,362.56,9.91,320.94,1.68,259Z"/><g class="cls-5"><path class="cls-7" d="M276.31,8.31H511.53l-17.9,86.63H356.17l-11.61,51.79H473.3l-15,71.63H329.55l-11.61,54.21H455.39L437,358.72H201.78Z"/></g><g class="cls-5"><path class="cls-8" d="M1.68,259,90.25,246.4C95.09,272.54,118.32,290,146.88,290c30,0,49.37-12.1,49.37-33.4,0-51.3-158.75-35.33-158.75-141.32C37.5,46,93.64,1.5,180.28,1.5c72.11,0,132.61,42.11,138.42,97.28l-89.54,14c-6.78-22.75-26.62-37.27-53.24-37.27S132.36,87.17,132.36,107C132.36,165.09,294,141.37,294,249.3c0,68.73-59.53,113.26-151.49,113.26C66.05,362.56,9.91,320.94,1.68,259Z"/></g><g class="cls-9"><path class="cls-4" d="M507.1,94.94H431.59L450,8.31H698.76L680.37,94.94h-75L549.2,358.72H451Z"/></g><g class="cls-9"><path class="cls-4" d="M276.31,8.31H511.53l-17.9,86.63H356.17l-11.61,51.79H473.3l-15,71.63H329.55l-11.61,54.21H455.39L437,358.72H201.78Z"/></g><g class="cls-9"><path class="cls-4" d="M1.68,259,90.25,246.4C95.09,272.54,118.32,290,146.88,290c30,0,49.37-12.1,49.37-33.4,0-51.3-158.75-35.33-158.75-141.32C37.5,46,93.64,1.5,180.28,1.5c72.11,0,132.61,42.11,138.42,97.28l-89.54,14c-6.78-22.75-26.62-37.27-53.24-37.27S132.36,87.17,132.36,107C132.36,165.09,294,141.37,294,249.3c0,68.73-59.53,113.26-151.49,113.26C66.05,362.56,9.91,320.94,1.68,259Z"/></g></g></g></g></svg>